# Blender v2.81 (sub 16) OBJ File: ''
# www.blender.org
mtllib arrow.mtl
o Plane
v -0.623786 0.000000 1.000000
v 0.623786 0.000000 1.000000
v -0.623786 0.000000 -1.000000
v 0.623786 0.000000 -1.000000
v -1.562364 0.000000 -1.000000
v 1.562364 0.000000 -1.000000
v 0.000000 0.000000 -2.015950
vt 0.000000 0.000000
vt 0.000000 0.000000
vt 0.000000 0.000000
vt 0.000000 0.000000
vt 0.000000 0.000000
vt 0.000000 0.000000
vt 0.000000 0.000000
vn 0.0000 1.0000 0.0000
usemtl None
s off
f 2/1/1 4/2/1 1/3/1
f 5/4/1 3/5/1 7/6/1
f 1/3/1 4/2/1 3/5/1
f 6/7/1 7/6/1 4/2/1
f 4/2/1 7/6/1 3/5/1
